#!OML:ASF I:\Actors\actors\Patient Classification 2\Patient 1\Session 1\actor1.ASF
:FULLY-SPECIFIED
:DEGREES
592
root -0.564226 18.8017 5.48963 5.19846 0.580222 -1.85638
lowerback 21.6908 -0.522405 0.448974
upperback 9.20474 -0.59453 -0.226098
thorax -2.10768 -0.278955 -0.360668
lowerneck -22.0261 -0.869106 -0.866934
upperneck 19.9691 -1.56315 2.62792
head 10.0249 -0.465079 0.840199
rclavicle -6.55989e-015 2.78299e-015
rhumerus -54.8454 53.084 -127.724
rradius 116.614
rwrist -8.66115
rhand 0.265164 -25.1243
rfingers 7.12502
rthumb 25.8443 -53.3883
lclavicle -6.55989e-015 2.78299e-015
lhumerus -46.8261 -69.2703 141.884
lradius 122.22
lwrist 45.834
lhand 2.36337 345.489
lfingers 7.12502
lthumb 27.8521 13.4448
rfemur 2.11543 0.407693 15.5756
rtibia -1.27222e-014
rfoot -16.2537 -14.117
rtoes -10.6837
lfemur -14.4003 -0.743654 -12.1262
ltibia 26.6174
lfoot -16.6698 5.99402
ltoes -57.6257
593
root -0.549504 18.8105 5.496 5.43648 0.564075 -1.88158
lowerback 21.5519 -0.553918 0.673908
upperback 9.12976 -0.595567 -0.293375
thorax -2.12209 -0.273007 -0.560547
lowerneck -22.0738 -0.91165 -0.820231
upperneck 19.9492 -1.63655 2.6262
head 10.0275 -0.495106 0.820857
rclavicle -1.11319e-014 -2.38542e-015
rhumerus -54.8454 53.084 -127.724
rradius 116.614
rwrist -8.66115
rhand 0.265164 -25.1243
rfingers 7.12502
rthumb 25.8443 -53.3883
lclavicle -1.11319e-014 -2.38542e-015
lhumerus -46.9102 -69.1663 142.065
lradius 122.124
lwrist 46.0518
lhand 2.5927 345.467
lfingers 7.12502
lthumb 28.0713 13.3866
rfemur 1.83357 0.405609 15.5267
rtibia 3.18055e-015
rfoot -16.0667 -14.2194
rtoes -10.8207
lfemur -14.6958 -0.771917 -12.1545
ltibia 26.6837
lfoot -16.5648 6.08902
ltoes -57.5892
594
root -0.540759 18.8152 5.50513 5.63454 0.700567 -1.89706
lowerback 21.4785 -0.636332 0.923417
upperback 9.05895 -0.657496 -0.387443
thorax -2.16613 -0.295903 -0.788716
lowerneck -22.2512 -0.946908 -0.776209
upperneck 20.0348 -1.72884 2.73336
head 10.0933 -0.518743 0.838051
rclavicle 5.56597e-015 2.78299e-015
rhumerus -54.8454 53.084 -127.724
rradius 116.614
rwrist -8.66115
rhand 0.265164 -25.1243
rfingers 7.12502
rthumb 25.8443 -53.3883
lclavicle 5.56597e-015 2.78299e-015
lhumerus -47.0546 -69.1633 142.239
lradius 122.008
lwrist 46.3144
lhand 2.55186 345.518
lfingers 7.12502
lthumb 28.0322 13.444
rfemur 1.65228 0.254756 15.5064
rtibia 0
rfoot -16.0158 -14.2211
rtoes -10.7432
lfemur -14.9811 -0.830214 -12.161
ltibia 26.7737
lfoot -16.5103 6.04975
ltoes -57.4798
595
root -0.538457 18.8154 5.51734 5.7107 0.936202 -1.86122
lowerback 21.508 -0.716528 1.08024
upperback 9.02936 -0.731776 -0.45856
thorax -2.21678 -0.327231 -0.936459
lowerneck -22.4583 -0.996228 -0.796368
upperneck 20.0854 -1.8211 2.85173
head 10.1526 -0.545834 0.869601
rclavicle -6.75868e-015 -5.96354e-015
rhumerus -54.8454 53.084 -127.724
rradius 116.614
rwrist -8.66115
rhand 0.265164 -25.1243
rfingers 7.12502
rthumb 25.8443 -53.3883
lclavicle -6.75868e-015 -5.96354e-015
lhumerus -47.2226 -69.1183 142.441
lradius 121.891
lwrist 46.6249
lhand 2.62014 345.634
lfingers 7.12502
lthumb 28.0975 13.5491
rfemur 1.65459 0.0111448 15.4751
rtibia 1.59028e-015
rfoot -16.0451 -14.1933
rtoes -10.9225
lfemur -15.1396 -0.924317 -12.1991
ltibia 26.8832
lfoot -16.5225 5.92442
ltoes -57.4495
596
root -0.538035 18.81 5.52875 5.76167 1.14509 -1.79132
lowerback 21.5229 -0.76917 1.1166
upperback 9.04319 -0.792408 -0.492369
thorax -2.21154 -0.354911 -0.979347
lowerneck -22.6578 -1.05163 -0.85097
upperneck 20.0268 -1.88918 2.89951
head 10.1702 -0.574193 0.884818
rclavicle 7.15625e-015 3.57812e-015
rhumerus -54.8454 53.084 -127.724
rradius 116.614
rwrist -8.66115
rhand 0.265164 -25.1243
rfingers 7.12502
rthumb 25.8443 -53.3883
lclavicle 7.15625e-015 3.57812e-015
lhumerus -47.345 -69.0492 142.626
lradius 121.816
lwrist 46.734
lhand 2.67129 345.822
lfingers 7.12502
lthumb 28.1464 13.7289
rfemur 1.68355 -0.206902 15.4205
rtibia 0
rfoot -16.1007 -14.1607
rtoes -11.0846
lfemur -15.2658 -1.07792 -12.2734
ltibia 27.0006
lfoot -16.6602 5.86475
ltoes -57.4891
597
root -0.540809 18.7994 5.53878 5.80102 1.32474 -1.73642
lowerback 21.546 -0.794846 1.08445
upperback 9.07598 -0.829505 -0.47789
thorax -2.18799 -0.373393 -0.937202
lowerneck -22.873 -1.10946 -0.924875
upperneck 19.9451 -1.94491 2.91517
head 10.1817 -0.602414 0.893454
rclavicle -3.37934e-015 1.59028e-015
rhumerus -54.8454 53.084 -127.724
rradius 116.614
rwrist -8.66115
rhand 0.265164 -25.1243
rfingers 7.12502
rthumb 25.8443 -53.3883
lclavicle -3.37934e-015 1.59028e-015
lhumerus -47.615 -69.0693 143.031
lradius 121.82
lwrist 46.4429
lhand 2.29471 346.114
lfingers 7.12502
lthumb 27.7864 14.08
rfemur 1.70292 -0.393216 15.3921
rtibia 1.59028e-015
rfoot -16.1176 -14.109
rtoes -11.1696
lfemur -15.3797 -1.28062 -12.3214
ltibia 27.1285
lfoot -16.888 5.8612
ltoes -57.4294
598
root -0.544757 18.7852 5.54489 5.83048 1.47215 -1.69017
lowerback 21.658 -0.804924 1.05269
upperback 9.07106 -0.845368 -0.458137
thorax -2.24906 -0.382147 -0.893486
lowerneck -23.0424 -1.14924 -0.958765
upperneck 19.8883 -1.97675 2.87788
head 10.1922 -0.623271 0.880412
rclavicle -1.19271e-015 -1.59028e-015
rhumerus -54.8454 53.084 -127.724
rradius 116.614
rwrist -8.66115
rhand 0.265164 -25.1243
rfingers 7.12502
rthumb 25.8443 -53.3883
lclavicle -1.19271e-015 -1.59028e-015
lhumerus -48.0987 -69.046 143.657
lradius 121.864
lwrist 45.798
lhand 1.81108 346.495
lfingers 7.12502
lthumb 27.3239 14.5348
rfemur 1.70659 -0.545782 15.3764
rtibia 1.11319e-014
rfoot -16.0923 -14.0815
rtoes -11.4243
lfemur -15.5037 -1.3635 -12.3658
ltibia 27.2724
lfoot -17.0406 5.79677
ltoes -57.3459
